<?xml version="1.0" standalone="no"?>
<!DOCTYPE svg PUBLIC "-//W3C//DTD SVG 20010904//EN"
 "http://www.w3.org/TR/2001/REC-SVG-20010904/DTD/svg10.dtd">
<svg version="1.0" xmlns="http://www.w3.org/2000/svg"
 width="105.000000pt" height="94.000000pt" viewBox="0 0 105.000000 94.000000"
 preserveAspectRatio="xMidYMid meet">

<g transform="translate(0.000000,94.000000) scale(0.100000,-0.100000)"
fill="#000000" stroke="none">
<path d="M0 470 l0 -470 525 0 525 0 0 470 0 470 -525 0 -525 0 0 -470z m612
283 c14 -12 18 -31 18 -83 l0 -68 40 10 c55 14 104 3 139 -33 41 -41 51 -84
51 -220 0 -126 -7 -144 -52 -137 -22 3 -23 6 -29 143 -3 77 -7 141 -8 142 -28
34 -82 44 -122 23 -17 -10 -19 -22 -19 -145 0 -73 -3 -140 -6 -149 -7 -19 -45
-21 -62 -4 -8 8 -12 51 -12 126 l0 113 -42 -3 c-40 -3 -43 -5 -46 -35 -3 -29
0 -33 22 -33 27 0 50 -28 38 -47 -4 -5 -23 -13 -43 -17 -33 -6 -38 -11 -43
-44 -12 -63 -16 -72 -40 -72 -35 0 -46 18 -39 67 6 43 5 43 -25 43 -27 0 -30
-4 -36 -37 -12 -67 -16 -73 -46 -73 -34 0 -40 14 -30 68 7 40 7 41 -24 44 -25
2 -32 8 -34 29 -3 24 1 27 36 33 30 4 41 11 46 28 10 40 7 47 -26 50 -28 2
-33 7 -33 28 0 22 5 26 40 30 38 5 40 7 47 49 9 53 18 64 49 59 22 -3 24 -7
21 -55 l-3 -53 31 0 c17 0 32 6 34 13 2 6 8 30 12 52 8 36 12 40 39 40 30 0
30 0 27 -52 l-3 -53 36 0 35 0 0 110 c0 93 3 110 18 119 23 14 23 14 44 -6z"/>
<path d="M327 463 c-4 -3 -7 -19 -7 -35 0 -24 4 -28 29 -28 28 0 40 18 41 58
0 12 -51 17 -63 5z"/>
</g>
</svg>
